<?xml version="1.0" encoding="utf-8"?>
<!-- Generator: Adobe Illustrator 22.1.0, SVG Export Plug-In . SVG Version: 6.00 Build 0)  -->
<svg version="1.1" id="GRAPHICS" xmlns="http://www.w3.org/2000/svg" xmlns:xlink="http://www.w3.org/1999/xlink" x="0px" y="0px"
	 viewBox="0 0 573 62" style="enable-background:new 0 0 573 62;" xml:space="preserve">
<style type="text/css">
	.st0{fill:#FCD547;}
</style>
<g>
	<path class="st0" d="M26.5,19.3c0-4.3-1.9-9.7-6.6-9.7c-5.7,0-7.9,5.8-7.9,20.2c0,13.9,1.3,22.6,8,22.6c2.7,0,7.2-3,7.2-9.2v-5.9
		h-7.7v-8.6h18.8v31.1h-8.6v-5.3h-0.2c-2.7,4.5-6.7,6.5-12.1,6.5C3.2,61,0.3,50.3,0.3,30.4C0.3,10.9,4.9,1,19.7,1
		c12.8,0,18,6.6,18,18.3H26.5z"/>
	<path class="st0" d="M46.7,2.1h21.5c9.5,0,15.4,5,15.4,14.9c0,7.7-3.1,12.9-9.6,14.2v0.2c7.9,1.1,9.1,5.4,9.3,17.6
		c0.1,6.1,0.4,9.2,2.6,10.4v0.5H73.2c-1.1-1.6-1.4-3.8-1.5-6.1l-0.3-11.1c-0.2-4.5-2.2-7.3-6.9-7.3h-6.2v24.4H46.7V2.1z M58.3,27.4
		h4.9c5.6,0,8.7-2.4,8.7-8.7c0-5.3-2.8-8-8.1-8h-5.5V27.4z"/>
	<path class="st0" d="M110.7,1c17.5,0,19.6,12.5,19.6,30s-2.2,30-19.6,30c-17.5,0-19.6-12.5-19.6-30S93.2,1,110.7,1z M110.7,52.4
		c6.9,0,8-5.9,8-21.4c0-15.4-1.1-21.4-8-21.4c-6.9,0-8,6-8,21.4C102.7,46.5,103.8,52.4,110.7,52.4z"/>
	<path class="st0" d="M149,2.1v40.3c0,5.7,1.4,10,6.8,10c5.4,0,6.8-4.3,6.8-10V2.1h11.6v40.3c0,14.7-9,18.6-18.4,18.6
		c-9.5,0-18.4-3.2-18.4-18.6V2.1H149z"/>
	<path class="st0" d="M183.6,2.1h20.4c11.8,0,15.8,8.7,15.8,17.3c0,12-7.4,17.4-18.4,17.4h-6.2v23h-11.6V2.1z M195.2,28.3h5.2
		c4.6,0,7.8-2.8,7.8-8.7c0-5.7-2.3-8.9-8.1-8.9h-4.9V28.3z"/>
	<path class="st0" d="M257,2.1v9.5h-20.6v13.6h19.4v9.5h-19.4v15.5h21.4v9.5h-33.1V2.1H257z"/>
	<path d="M284.6,2.1h21.5c9.5,0,15.4,5,15.4,14.9c0,7.7-3.1,12.9-9.6,14.2v0.2c7.9,1.1,9.1,5.4,9.3,17.6c0.1,6.1,0.4,9.2,2.6,10.4
		v0.5h-12.6c-1.1-1.6-1.4-3.8-1.5-6.1l-0.3-11.1c-0.2-4.5-2.2-7.3-6.9-7.3h-6.2v24.4h-11.6V2.1z M296.3,27.4h4.9
		c5.6,0,8.7-2.4,8.7-8.7c0-5.3-2.8-8-8.1-8h-5.5V27.4z"/>
	<path d="M363.1,2.1v9.5h-20.6v13.6h19.4v9.5h-19.4v15.5h21.4v9.5h-33.1V2.1H363.1z"/>
	<path d="M384.3,2.1l14.1,39.5h0.2V2.1h10.7v57.7H396l-14.2-40.4h-0.2v40.4h-10.7V2.1H384.3z"/>
	<path d="M429.3,2.1h14.4L459,59.9h-12.1l-2.7-12.2h-15.4l-2.7,12.2H414L429.3,2.1z M430.8,38.1h11.3l-5.6-26h-0.2L430.8,38.1z"/>
	<path d="M473.7,2.1v40.3c0,5.7,1.4,10,6.8,10s6.8-4.3,6.8-10V2.1h11.6v40.3c0,14.7-9,18.6-18.4,18.6C471,61,462,57.8,462,42.4V2.1
		H473.7z"/>
	<path d="M508.7,59.9V2.1h11.6v48.2H541v9.5H508.7z"/>
	<path d="M572.7,2.1v9.5h-12.6v48.2h-11.6V11.7h-12.6V2.1H572.7z"/>
</g>
</svg>
