<svg id="SvgjsSvg1000" xmlns="http://www.w3.org/2000/svg" version="1.1" xmlns:xlink="http://www.w3.org/1999/xlink" xmlns:svgjs="http://svgjs.com/svgjs" width="350" height="192"><defs id="SvgjsDefs1001"><linearGradient id="SvgjsLinearGradient1009" gradientUnits="userSpaceOnUse" x1="811" y1="345" x2="811" y2="405"><stop id="SvgjsStop1010" stop-opacity="1" stop-color="#eec31a" offset="0"></stop><stop id="SvgjsStop1011" stop-opacity="1" stop-color="#ffaa45" offset="1"></stop></linearGradient></defs><path id="SvgjsPath1007" d="M888 530C891.86599 530 895 526.86599 895 523C895 519.13401 891.86599 516 888 516L849 516C845.13401 516 842 512.86599 842 509C842 505.13401 845.13401 502 849 502L887.65842 502C887.6580299999999 501.98985 887.65764 501.9797 887.65725 501.96955C891.2150399999999 501.63824000000005 893.99999 498.64435000000003 893.99999 495C893.99999 491.13401 890.86598 488 886.99999 488C885.68032 488 884.44595 488.36518 883.3924000000001 489L855.99999 489C852.134 489 848.99999 485.86599 848.99999 482C848.99999 478.13401 852.134 475 855.99999 475L884.38741 475C884.38669 474.99653 884.38598 474.99305 884.38526 474.98958C888.07207 474.7896 890.99999 471.73672999999997 890.99999 468C890.99999 464.13401 887.86598 461 883.99999 461C883.66047 461 883.32659 461.02417 882.99999 461.07089L882.99999 461L831.99999 461L831.99999 460.92911C831.67339 460.97583 831.33951 461 830.99999 461C827.134 461 823.99999 457.86599 823.99999 454C823.99999 450.13401 827.134 447 830.99999 447C831.33951 447 831.67339 447.02417 831.99999 447.07089L831.99999 447L875.93271 447C875.88702 446.8866 875.8412000000001 446.77327 875.7952700000001 446.66L867.1612100000001 446.66C869.9695200000001 445.74933000000004 871.9999900000001 443.11178 871.9999900000001 440C871.9999900000001 439.22404 871.8737300000001 438.47756 871.6406400000002 437.78L871.8829900000002 437.78C845.4584200000002 382.32417999999996 788.8703100000001 344 723.3299900000002 344C658.9210300000002 344 603.1629100000002 381.01249 576.1802300000002 434.92357C574.8373100000001 436.19899999999996 573.9999900000001 438.00172 573.9999900000001 440C573.9999900000001 442.54633 575.3595700000002 444.7751 577.3924000000002 446L571.1425700000002 446C571.0059300000001 446.33279 570.8703500000003 446.66612 570.7358300000002 447L599.9999900000001 447C603.8659800000001 447 606.9999900000001 450.13401 606.9999900000001 454C606.9999900000001 457.86599 603.8659800000001 461 599.9999900000001 461L560.9999900000001 461C557.1340000000001 461 553.9999900000001 464.13401 553.9999900000001 468C553.9999900000001 471.86599 557.1340000000001 475 560.9999900000001 475L604.9999900000001 475L604.9999900000001 475.07089C608.3922800000001 475.55612 610.9999900000001 478.47353000000004 610.9999900000001 482C610.9999900000001 485.52647 608.3922800000001 488.44388 604.9999900000001 488.92911L604.9999900000001 489L580.9999900000001 489L580.9999900000001 488L551.9999900000001 488C548.1340000000001 488 544.9999900000001 491.13401 544.9999900000001 495C544.9999900000001 498.86599 548.1340000000001 502 551.9999900000001 502L582.9999900000001 502C586.8659800000001 502 589.9999900000001 505.13401 589.9999900000001 509C589.9999900000001 512.86599 586.8659800000001 516 582.9999900000001 516L559.0635500000002 516C559.0676200000001 516.08926 559.0717700000002 516.17851 559.0759900000002 516.26773C556.1455200000001 517.10364 553.9999900000001 519.8012600000001 553.9999900000001 523C553.9999900000001 526.62806 556.7601000000002 529.61146 560.2950600000001 529.96495C560.2965900000002 529.97663 560.2981300000001 529.98832 560.2996600000001 530Z " fill="#dcefff" fill-opacity="1" transform="matrix(1,0,0,1,-545,-344)"></path><path id="SvgjsPath1008" d="M781 375C781 358.43146 794.43146 345 811 345C827.56854 345 841 358.43146 841 375C841 391.56854 827.56854 405 811 405C794.43146 405 781 391.56854 781 375Z " fill="url(#SvgjsLinearGradient1009)" transform="matrix(1,0,0,1,-545,-344)"></path><path id="SvgjsPath1012" d="M778.73731 390.45781C780.90214 383.25078 787.5878799999999 378 795.5 378C805.16498 378 813 385.83502 813 395.5C813 404.99775999999997 805.43376 412.72833 796 412.99299L796 413L758.1272 413C756.8909600000001 413.63907 755.48763 414 754 414C749.02944 414 745 409.97056 745 405C745 400.02944 749.02944 396 754 396C756.88341 396 759.45012 397.35596 761.09726 399.465C761.85091 393.56248999999997 766.89264 389 773 389C775.07814 389 777.03289 389.52825 778.73731 390.45781Z " fill="#ffffff" fill-opacity="1" transform="matrix(1,0,0,1,-545,-344)"></path><path id="SvgjsPath1013" d="M723.33835 371.84581C724.51408 367.33191 728.61794 364 733.5 364C739.29899 364 744 368.70101 744 374.5C744 380.13138 739.56682 384.72733 734 384.9883L734 385L710.87553 385C710.06219 385.63003 709.07037 386 708 386C705.23858 386 703 383.53757 703 380.5C703 377.46243 705.23858 375 708 375C709.94304 375 711.62721 376.21916 712.45481 378L713 378C713 374.13401 716.13401 371 720 371C721.20883 371 722.34609 371.30641 723.33835 371.84581Z " fill="#ffffff" fill-opacity="1" transform="matrix(1,0,0,1,-545,-344)"></path><path id="SvgjsPath1014" d="M648.39133 402.05719C646.72163 396.80507 641.8051700000001 393 636 393C628.8203 393 623 398.8203 623 406C623 412.84323 628.28755 418.45149 635 418.96211L635 419L667 419L667 418.98106C670.35622 418.72575 673 415.92162 673 412.5C673 408.91015 670.08985 406 666.5 406C664.17646 406 662.13767 407.21917 660.98843 409.0527C660.75583 404.56620000000004 657.04438 401 652.5 401C651.00977 401 649.60911 401.3835 648.39133 402.05719Z " fill="#ffffff" fill-opacity="1" transform="matrix(1,0,0,1,-545,-344)"></path><path id="SvgjsPath1015" d="M744.9 456.79L777.1999999999999 436L737.9999999999999 471.35Z " fill="#f2f1e7" fill-opacity="1" transform="matrix(1,0,0,1,-545,-344)"></path><path id="SvgjsPath1016" d="M744.9 456.79L777.1999999999999 436L737.9999999999999 471.35L744.8999999999999 456.79Z " fill-opacity="0" fill="#ffffff" stroke-dasharray="0" stroke-linejoin="round" stroke-linecap="round" stroke-opacity="1" stroke="#000000" stroke-miterlimit="50" stroke-width="4" transform="matrix(1,0,0,1,-545,-344)"></path><path id="SvgjsPath1017" d="M737.68 454.68L717 450.78000000000003L777.08 436.00000000000006Z " fill="#f9f8f2" fill-opacity="1" transform="matrix(1,0,0,1,-545,-344)"></path><path id="SvgjsPath1018" d="M737.68 454.68L717 450.78000000000003L777.08 436.00000000000006L737.6800000000001 454.68000000000006Z " fill-opacity="0" fill="#ffffff" stroke-dasharray="0" stroke-linejoin="round" stroke-linecap="round" stroke-opacity="1" stroke="#000000" stroke-miterlimit="50" stroke-width="4" transform="matrix(1,0,0,1,-545,-344)"></path><path id="SvgjsPath1019" d="M777.31 436L745 456.79L773.62 465.28000000000003Z " fill="#f9f8f2" fill-opacity="1" transform="matrix(1,0,0,1,-545,-344)"></path><path id="SvgjsPath1020" d="M777.31 436L745 456.79L773.62 465.28000000000003L777.3100000000001 436Z " fill-opacity="0" fill="#ffffff" stroke-dasharray="0" stroke-linejoin="round" stroke-linecap="round" stroke-opacity="1" stroke="#000000" stroke-miterlimit="50" stroke-width="4" transform="matrix(1,0,0,1,-545,-344)"></path><path id="SvgjsPath1021" d="M738 454.68L777.4 436L745.1 456.79L738.2 471.35Z " fill="#e0dfd3" fill-opacity="1" transform="matrix(1,0,0,1,-545,-344)"></path><path id="SvgjsPath1022" d="M738 454.68L777.4 436L745.1 456.79L738.2 471.35Z " fill-opacity="0" fill="#ffffff" stroke-dasharray="0" stroke-linejoin="round" stroke-linecap="round" stroke-opacity="1" stroke="#000000" stroke-miterlimit="50" stroke-width="4" transform="matrix(1,0,0,1,-545,-344)"></path><path id="SvgjsPath1023" d="M728.37 467C728.37 467 703.58 474.71 689.36 490.59C675.13 506.47999999999996 645.48 482.10999999999996 662.46 469.73999999999995C679.44 457.35999999999996 693.26 498.41999999999996 667.51 514.4C641.75 530.39 613.97 487.85999999999996 593 504.14 " fill-opacity="0" fill="#ffffff" stroke-dasharray="0" stroke-linejoin="miter" stroke-linecap="round" stroke-opacity="1" stroke="#aecfe6" stroke-miterlimit="50" stroke-width="4" transform="matrix(1,0,0,1,-545,-344)"></path><path id="SvgjsPath1024" d="M783 502.5C783 496.70101 787.70101 492 793.5 492C799.29899 492 804 496.70101 804 502.5C804 508.29899 799.29899 513 793.5 513C787.70101 513 783 508.29899 783 502.5Z " fill="#ffffff" fill-opacity="1" transform="matrix(1,0,0,1,-545,-344)"></path><path id="SvgjsPath1025" d="M777 503C777 500.23858 779.23858 498 782 498C784.76142 498 787 500.23858 787 503C787 505.76142 784.76142 508 782 508C779.23858 508 777 505.76142 777 503Z " fill="#ffffff" fill-opacity="1" transform="matrix(1,0,0,1,-545,-344)"></path><path id="SvgjsPath1026" d="M784 512C784 510.34315 785.34315 509 787 509C788.65685 509 790 510.34315 790 512C790 513.65685 788.65685 515 787 515C785.34315 515 784 513.65685 784 512Z " fill="#ffffff" fill-opacity="1" transform="matrix(1,0,0,1,-545,-344)"></path><path id="SvgjsPath1027" d="M780 509C780 507.34315 781.34315 506 783 506C784.65685 506 786 507.34315 786 509C786 510.65685 784.65685 512 783 512C781.34315 512 780 510.65685 780 509Z " fill="#ffffff" fill-opacity="1" transform="matrix(1,0,0,1,-545,-344)"></path><path id="SvgjsPath1028" d="M795 494C795 492.34315 796.34315 491 798 491C799.65685 491 801 492.34315 801 494C801 495.65685 799.65685 497 798 497C796.34315 497 795 495.65685 795 494Z " fill="#ffffff" fill-opacity="1" transform="matrix(1,0,0,1,-545,-344)"></path><path id="SvgjsPath1029" d="M780 496.5C780 494.567 781.567 493 783.5 493C785.433 493 787 494.567 787 496.5C787 498.433 785.433 500 783.5 500C781.567 500 780 498.433 780 496.5Z " fill="#ffffff" fill-opacity="1" transform="matrix(1,0,0,1,-545,-344)"></path><path id="SvgjsPath1030" d="M785 496C785 494.34315 786.34315 493 788 493C789.65685 493 791 494.34315 791 496C791 497.65685 789.65685 499 788 499C786.34315 499 785 497.65685 785 496Z " fill="#ffffff" fill-opacity="1" transform="matrix(1,0,0,1,-545,-344)"></path><path id="SvgjsPath1031" d="M798 506C798 503.79086 799.79086 502 802 502C804.20914 502 806 503.79086 806 506C806 508.20914 804.20914 510 802 510C799.79086 510 798 508.20914 798 506Z " fill="#ffffff" fill-opacity="1" transform="matrix(1,0,0,1,-545,-344)"></path><path id="SvgjsPath1032" d="M799 510C799 508.34315 800.34315 507 802 507C803.65685 507 805 508.34315 805 510C805 511.65685 803.65685 513 802 513C800.34315 513 799 511.65685 799 510Z " fill="#ffffff" fill-opacity="1" transform="matrix(1,0,0,1,-545,-344)"></path><path id="SvgjsPath1033" d="M794 509.5C794 506.46243 796.46243 504 799.5 504C802.53757 504 805 506.46243 805 509.5C805 512.53757 802.53757 515 799.5 515C796.46243 515 794 512.53757 794 509.5Z " fill="#ffffff" fill-opacity="1" transform="matrix(1,0,0,1,-545,-344)"></path><path id="SvgjsPath1034" d="M799 498C799 496.34315 800.34315 495 802 495C803.65685 495 805 496.34315 805 498C805 499.65685 803.65685 501 802 501C800.34315 501 799 499.65685 799 498Z " fill="#ffffff" fill-opacity="1" transform="matrix(1,0,0,1,-545,-344)"></path><path id="SvgjsPath1035" d="M803 499C803 497.89543 803.89543 497 805 497C806.10457 497 807 497.89543 807 499C807 500.10457 806.10457 501 805 501C803.89543 501 803 500.10457 803 499Z " fill="#ffffff" fill-opacity="1" transform="matrix(1,0,0,1,-545,-344)"></path><path id="SvgjsPath1036" d="M792 492C792 490.89543 792.89543 490 794 490C795.10457 490 796 490.89543 796 492C796 493.10457 795.10457 494 794 494C792.89543 494 792 493.10457 792 492Z " fill="#ffffff" fill-opacity="1" transform="matrix(1,0,0,1,-545,-344)"></path><path id="SvgjsPath1037" d="M787 494C787 492.89543 787.89543 492 789 492C790.10457 492 791 492.89543 791 494C791 495.10457 790.10457 496 789 496C787.89543 496 787 495.10457 787 494Z " fill="#ffffff" fill-opacity="1" transform="matrix(1,0,0,1,-545,-344)"></path><path id="SvgjsPath1038" d="M793 513C793 511.89543 793.89543 511 795 511C796.10457 511 797 511.89543 797 513C797 514.10457 796.10457 515 795 515C793.89543 515 793 514.10457 793 513Z " fill="#ffffff" fill-opacity="1" transform="matrix(1,0,0,1,-545,-344)"></path><path id="SvgjsPath1039" d="M781 512C781 510.89543 781.89543 510 783 510C784.10457 510 785 510.89543 785 512C785 513.10457 784.10457 514 783 514C781.89543 514 781 513.10457 781 512Z " fill="#ffffff" fill-opacity="1" transform="matrix(1,0,0,1,-545,-344)"></path><path id="SvgjsPath1040" d="M786 514C786 512.89543 786.89543 512 788 512C789.10457 512 790 512.89543 790 514C790 515.10457 789.10457 516 788 516C786.89543 516 786 515.10457 786 514Z " fill="#ffffff" fill-opacity="1" transform="matrix(1,0,0,1,-545,-344)"></path><path id="SvgjsPath1041" d="M804 503C804 501.34315 805.34315 500 807 500C808.65685 500 810 501.34315 810 503C810 504.65685 808.65685 506 807 506C805.34315 506 804 504.65685 804 503Z " fill="#ffffff" fill-opacity="1" transform="matrix(1,0,0,1,-545,-344)"></path><path id="SvgjsPath1042" d="M787.52 504.7C784.28 496.58 797.26 497.63 795.22 504.7C793.1800000000001 511.76 795.22 534.13 795.22 534.13L787.52 534.13C787.52 534.13 790.77 512.81 787.52 504.7Z " fill="#ffffff" fill-opacity="1" transform="matrix(1,0,0,1,-545,-344)"></path><path id="SvgjsPath1043" d="M719 509.5C719 505.35786 722.35786 502 726.5 502C730.64214 502 734 505.35786 734 509.5C734 513.64214 730.64214 517 726.5 517C722.35786 517 719 513.64214 719 509.5Z " fill="#ffffff" fill-opacity="1" transform="matrix(1,0,0,1,-545,-344)"></path><path id="SvgjsPath1044" d="M716 515C716 512.79086 717.79086 511 720 511C722.20914 511 724 512.79086 724 515C724 517.20914 722.20914 519 720 519C717.79086 519 716 517.20914 716 515Z " fill="#ffffff" fill-opacity="1" transform="matrix(1,0,0,1,-545,-344)"></path><path id="SvgjsPath1045" d="M715 509.5C715 507.567 716.567 506 718.5 506C720.433 506 722 507.567 722 509.5C722 511.433 720.433 513 718.5 513C716.567 513 715 511.433 715 509.5Z " fill="#ffffff" fill-opacity="1" transform="matrix(1,0,0,1,-545,-344)"></path><path id="SvgjsPath1046" d="M714 512C714 510.89543 714.89543 510 716 510C717.10457 510 718 510.89543 718 512C718 513.10457 717.10457 514 716 514C714.89543 514 714 513.10457 714 512Z " fill="#ffffff" fill-opacity="1" transform="matrix(1,0,0,1,-545,-344)"></path><path id="SvgjsPath1047" d="M728 503C728 501.89543 728.89543 501 730 501C731.10457 501 732 501.89543 732 503C732 504.10457 731.10457 505 730 505C728.89543 505 728 504.10457 728 503Z " fill="#ffffff" fill-opacity="1" transform="matrix(1,0,0,1,-545,-344)"></path><path id="SvgjsPath1048" d="M717 504.5C717 503.11929 718.11929 502 719.5 502C720.88071 502 722 503.11929 722 504.5C722 505.88071 720.88071 507 719.5 507C718.11929 507 717 505.88071 717 504.5Z " fill="#ffffff" fill-opacity="1" transform="matrix(1,0,0,1,-545,-344)"></path><path id="SvgjsPath1049" d="M721 504C721 502.89543 721.89543 502 723 502C724.10457 502 725 502.89543 725 504C725 505.10457 724.10457 506 723 506C721.89543 506 721 505.10457 721 504Z " fill="#ffffff" fill-opacity="1" transform="matrix(1,0,0,1,-545,-344)"></path><path id="SvgjsPath1050" d="M731 512C731 510.34315 732.34315 509 734 509C735.65685 509 737 510.34315 737 512C737 513.65685 735.65685 515 734 515C732.34315 515 731 513.65685 731 512Z " fill="#ffffff" fill-opacity="1" transform="matrix(1,0,0,1,-545,-344)"></path><path id="SvgjsPath1051" d="M731 515C731 513.89543 731.89543 513 733 513C734.10457 513 735 513.89543 735 515C735 516.10457 734.10457 517 733 517C731.89543 517 731 516.10457 731 515Z " fill="#ffffff" fill-opacity="1" transform="matrix(1,0,0,1,-545,-344)"></path><path id="SvgjsPath1052" d="M728 515C728 512.79086 729.79086 511 732 511C734.20914 511 736 512.79086 736 515C736 517.20914 734.20914 519 732 519C729.79086 519 728 517.20914 728 515Z " fill="#ffffff" fill-opacity="1" transform="matrix(1,0,0,1,-545,-344)"></path><path id="SvgjsPath1053" d="M731 505C731 503.89543 731.89543 503 733 503C734.10457 503 735 503.89543 735 505C735 506.10457 734.10457 507 733 507C731.89543 507 731 506.10457 731 505Z " fill="#ffffff" fill-opacity="1" transform="matrix(1,0,0,1,-545,-344)"></path><path id="SvgjsPath1054" d="M734 506.5C734 505.67157 734.67157 505 735.5 505C736.32843 505 737 505.67157 737 506.5C737 507.32843 736.32843 508 735.5 508C734.67157 508 734 507.32843 734 506.5Z " fill="#ffffff" fill-opacity="1" transform="matrix(1,0,0,1,-545,-344)"></path><path id="SvgjsPath1055" d="M727 517.5C727 516.67157 727.67157 516 728.5 516C729.32843 516 730 516.67157 730 517.5C730 518.32843 729.32843 519 728.5 519C727.67157 519 727 518.32843 727 517.5Z " fill="#ffffff" fill-opacity="1" transform="matrix(1,0,0,1,-545,-344)"></path><path id="SvgjsPath1056" d="M721 517.5C721 516.67157 721.67157 516 722.5 516C723.32843 516 724 516.67157 724 517.5C724 518.32843 723.32843 519 722.5 519C721.67157 519 721 518.32843 721 517.5Z " fill="#ffffff" fill-opacity="1" transform="matrix(1,0,0,1,-545,-344)"></path><path id="SvgjsPath1057" d="M735 510C735 508.89543 735.89543 508 737 508C738.10457 508 739 508.89543 739 510C739 511.10457 738.10457 512 737 512C735.89543 512 735 511.10457 735 510Z " fill="#ffffff" fill-opacity="1" transform="matrix(1,0,0,1,-545,-344)"></path><path id="SvgjsPath1058" d="M725 501C725 499.89543 725.89543 499 727 499C728.10457 499 729 499.89543 729 501C729 502.10457 728.10457 503 727 503C725.89543 503 725 502.10457 725 501Z " fill="#ffffff" fill-opacity="1" transform="matrix(1,0,0,1,-545,-344)"></path><path id="SvgjsPath1059" d="M722 504C722 502.89543 722.89543 502 724 502C725.10457 502 726 502.89543 726 504C726 505.10457 725.10457 506 724 506C722.89543 506 722 505.10457 722 504Z " fill="#ffffff" fill-opacity="1" transform="matrix(1,0,0,1,-545,-344)"></path><path id="SvgjsPath1060" d="M722.38 510.2C720 504.21999999999997 729.54 504.99 728.04 510.2C726.54 515.41 728.04 531.92 728.04 531.92L722.38 531.92C722.38 531.92 724.77 516.1899999999999 722.38 510.19999999999993Z " fill="#ffffff" fill-opacity="1" transform="matrix(1,0,0,1,-545,-344)"></path><path id="SvgjsPath1061" d="M758 515C758 511.13401 761.13401 508 765 508C768.86599 508 772 511.13401 772 515C772 518.86599 768.86599 522 765 522C761.13401 522 758 518.86599 758 515Z " fill="#ffffff" fill-opacity="1" transform="matrix(1,0,0,1,-545,-344)"></path><path id="SvgjsPath1062" d="M755 521C755 518.79086 756.79086 517 759 517C761.20914 517 763 518.79086 763 521C763 523.20914 761.20914 525 759 525C756.79086 525 755 523.20914 755 521Z " fill="#ffffff" fill-opacity="1" transform="matrix(1,0,0,1,-545,-344)"></path><path id="SvgjsPath1063" d="M754 515.5C754 513.567 755.567 512 757.5 512C759.433 512 761 513.567 761 515.5C761 517.433 759.433 519 757.5 519C755.567 519 754 517.433 754 515.5Z " fill="#ffffff" fill-opacity="1" transform="matrix(1,0,0,1,-545,-344)"></path><path id="SvgjsPath1064" d="M753 518C753 516.89543 753.89543 516 755 516C756.10457 516 757 516.89543 757 518C757 519.10457 756.10457 520 755 520C753.89543 520 753 519.10457 753 518Z " fill="#ffffff" fill-opacity="1" transform="matrix(1,0,0,1,-545,-344)"></path><path id="SvgjsPath1065" d="M766 509C766 507.89543 766.89543 507 768 507C769.10457 507 770 507.89543 770 509C770 510.10457 769.10457 511 768 511C766.89543 511 766 510.10457 766 509Z " fill="#ffffff" fill-opacity="1" transform="matrix(1,0,0,1,-545,-344)"></path><path id="SvgjsPath1066" d="M756 511.5C756 510.11929 757.11929 509 758.5 509C759.88071 509 761 510.11929 761 511.5C761 512.88071 759.88071 514 758.5 514C757.11929 514 756 512.88071 756 511.5Z " fill="#ffffff" fill-opacity="1" transform="matrix(1,0,0,1,-545,-344)"></path><path id="SvgjsPath1067" d="M759 511C759 509.89543 759.89543 509 761 509C762.10457 509 763 509.89543 763 511C763 512.10457 762.10457 513 761 513C759.89543 513 759 512.10457 759 511Z " fill="#ffffff" fill-opacity="1" transform="matrix(1,0,0,1,-545,-344)"></path><path id="SvgjsPath1068" d="M768 517C768 515.34315 769.34315 514 771 514C772.65685 514 774 515.34315 774 517C774 518.65685 772.65685 520 771 520C769.34315 520 768 518.65685 768 517Z " fill="#ffffff" fill-opacity="1" transform="matrix(1,0,0,1,-545,-344)"></path><path id="SvgjsPath1069" d="M769 520C769 518.89543 769.89543 518 771 518C772.10457 518 773 518.89543 773 520C773 521.10457 772.10457 522 771 522C769.89543 522 769 521.10457 769 520Z " fill="#ffffff" fill-opacity="1" transform="matrix(1,0,0,1,-545,-344)"></path><path id="SvgjsPath1070" d="M766 520C766 517.79086 767.79086 516 770 516C772.20914 516 774 517.79086 774 520C774 522.20914 772.20914 524 770 524C767.79086 524 766 522.20914 766 520Z " fill="#ffffff" fill-opacity="1" transform="matrix(1,0,0,1,-545,-344)"></path><path id="SvgjsPath1071" d="M769 511C769 509.89543 769.89543 509 771 509C772.10457 509 773 509.89543 773 511C773 512.10457 772.10457 513 771 513C769.89543 513 769 512.10457 769 511Z " fill="#ffffff" fill-opacity="1" transform="matrix(1,0,0,1,-545,-344)"></path><path id="SvgjsPath1072" d="M771 512.5C771 511.67157 771.67157 511 772.5 511C773.32843 511 774 511.67157 774 512.5C774 513.32843 773.32843 514 772.5 514C771.67157 514 771 513.32843 771 512.5Z " fill="#ffffff" fill-opacity="1" transform="matrix(1,0,0,1,-545,-344)"></path><path id="SvgjsPath1073" d="M765 521.5C765 520.67157 765.67157 520 766.5 520C767.32843 520 768 520.67157 768 521.5C768 522.32843 767.32843 523 766.5 523C765.67157 523 765 522.32843 765 521.5Z " fill="#ffffff" fill-opacity="1" transform="matrix(1,0,0,1,-545,-344)"></path><path id="SvgjsPath1074" d="M761 508.5C761 507.67157 761.67157 507 762.5 507C763.32843 507 764 507.67157 764 508.5C764 509.32843 763.32843 510 762.5 510C761.67157 510 761 509.32843 761 508.5Z " fill="#ffffff" fill-opacity="1" transform="matrix(1,0,0,1,-545,-344)"></path><path id="SvgjsPath1075" d="M760 522.5C760 521.67157 760.67157 521 761.5 521C762.32843 521 763 521.67157 763 522.5C763 523.32843 762.32843 524 761.5 524C760.67157 524 760 523.32843 760 522.5Z " fill="#ffffff" fill-opacity="1" transform="matrix(1,0,0,1,-545,-344)"></path><path id="SvgjsPath1076" d="M772 515C772 513.89543 772.89543 513 774 513C775.10457 513 776 513.89543 776 515C776 516.10457 775.10457 517 774 517C772.89543 517 772 516.10457 772 515Z " fill="#ffffff" fill-opacity="1" transform="matrix(1,0,0,1,-545,-344)"></path><path id="SvgjsPath1077" d="M761.35 515.83C759.1700000000001 510.38000000000005 767.91 511.08000000000004 766.5400000000001 515.83C765.1700000000001 520.58 766.5400000000001 535.61 766.5400000000001 535.61L761.35 535.61C761.35 535.61 763.5400000000001 521.28 761.35 515.83Z " fill="#ffffff" fill-opacity="1" transform="matrix(1,0,0,1,-545,-344)"></path></svg>