<?xml version="1.0" encoding="UTF-8" standalone="no"?>
<svg width="26px" height="26px" viewBox="0 0 26 26" version="1.1" xmlns="http://www.w3.org/2000/svg" xmlns:xlink="http://www.w3.org/1999/xlink">
    <!-- Generator: Sketch 3.8.3 (29802) - http://www.bohemiancoding.com/sketch -->
    <title>icon-acquisition</title>
    <desc>Created with Sketch.</desc>
    <defs></defs>
    <g id="Page-1" stroke="none" stroke-width="1" fill="none" fill-rule="evenodd">
        <g id="Analytics" transform="translate(-492.000000, -2837.000000)">
            <g id="icon-acquisition" transform="translate(492.000000, 2837.000000)">
                <circle id="Oval-13" fill="#F5963D" cx="13" cy="13" r="13"></circle>
                <g id="Page-1" transform="translate(5.000000, 4.000000)" fill="#FFFFFF">
                    <g>
                        <polygon id="Fill-1" points="6 12 10 12 10 16 6 16"></polygon>
                        <polygon id="Fill-3" points="6 0 10 0 10 4 6 4"></polygon>
                        <polygon id="Fill-4" points="12 12 16 12 16 16 12 16"></polygon>
                        <polygon id="Fill-5" points="0 12 4 12 4 16 0 16"></polygon>
                        <polygon id="Fill-6" points="7.5 5 8.5 5 8.5 7.5 7.5 7.5"></polygon>
                        <polygon id="Fill-7" points="7.5 8 8.5 8 8.5 11 7.5 11"></polygon>
                        <polygon id="Fill-8" points="14.5 11 13.5 11 13.5 8.5 2.5 8.5 2.5 11 1.5 11 1.5 7.5 14.5 7.5"></polygon>
                    </g>
                </g>
            </g>
        </g>
    </g>
</svg>