<?xml version="1.0" encoding="UTF-8" standalone="no"?>
<svg width="99px" height="59px" viewBox="0 0 99 59" version="1.1" xmlns="http://www.w3.org/2000/svg" xmlns:xlink="http://www.w3.org/1999/xlink">
    <!-- Generator: Sketch 39.1 (31720) - http://www.bohemiancoding.com/sketch -->
    <title>Icon/Dashboard</title>
    <desc>Created with Sketch.</desc>
    <defs></defs>
    <g id="Symbols" stroke="none" stroke-width="1" fill="none" fill-rule="evenodd">
        <g id="Icon/Dashboard">
            <g>
                <path d="M83.3333333,35.7225545 L92.9833333,35.7225545 L94.4444444,35.7225545 C96.7444444,35.7225545 98.6111111,33.8592818 98.6111111,31.5634636 C98.6111111,29.2676455 96.7444444,27.4043727 94.4444444,27.4043727 L88.5194444,27.4043727 L77.7777778,27.4043727 L75,27.4043727 C72.7,27.4043727 70.8333333,25.5411 70.8333333,23.2452818 C70.8333333,20.9494636 72.7,19.0861909 75,19.0861909 L80.8166667,19.0861909 C83.3333333,19.0861909 84.7222222,16.6406455 84.7222222,14.9271 C84.7222222,12.6312818 82.8555556,10.7680091 80.5555556,10.7680091 L71.9805556,10.7680091 C65.4777778,5.22255455 56.9444444,3.81400909 48.6111111,3.63932727 C40.6138889,3.81400909 33.1333333,5.52755455 26.6305556,10.7680091 L18.0555556,10.7680091 C15.7555556,10.7680091 13.8888889,12.6312818 13.8888889,14.9271 C13.8888889,16.6406455 15.2777778,19.0861909 17.7944444,19.0861909 L23.6111111,19.0861909 C25.9111111,19.0861909 27.7777778,20.9494636 27.7777778,23.2452818 C27.7777778,25.5411 25.9111111,27.4043727 23.6111111,27.4043727 L20.8333333,27.4043727 L10.0916667,27.4043727 L4.16666667,27.4043727 C1.86666667,27.4043727 0,29.2676455 0,31.5634636 C0,33.8592818 1.86666667,35.7225545 4.16666667,35.7225545 L5.62777778,35.7225545 L15.2777778,35.7225545 C17.5777778,35.7225545 19.4444444,37.5858273 19.4444444,39.8816455 C19.4444444,42.1774636 17.5777778,44.0407364 15.2777778,44.0407364 L3.53888889,44.0407364 C3.53611111,44.0573727 3.53611111,44.0740091 3.53611111,44.0878727 C3.45277778,44.0795545 3.38333333,44.0407364 3.3,44.0407364 C1.76666667,44.0407364 1.33333333,45.2829182 1.33333333,46.8134636 C1.33333333,48.3246 2.08333333,49.5418273 4.86111111,49.5751 L4.86111111,49.5861909 L48.6111111,49.5861909 L93.75,49.5861909 L93.75,49.5751 C96.5277778,49.5418273 97.2777778,48.3246 97.2777778,46.8134636 C97.2777778,45.2829182 97.0194444,44.0407364 95.4861111,44.0407364 C95.4,44.0407364 95.2444444,44.0795545 95.1638889,44.0878727 C95.1611111,44.0740091 95.075,44.0573727 95.0722222,44.0407364 L83.3333333,44.0407364 C81.0333333,44.0407364 79.1666667,42.1774636 79.1666667,39.8816455 C79.1666667,37.5858273 81.0333333,35.7225545 83.3333333,35.7225545" id="Fill-15" fill="#71C3B7" opacity="0.1"></path>
                <path d="M88.6552778,29.0929636 C71.1163889,29.0929636 77.1108333,7.16900909 63.0580556,7.16900909 C47.3747222,7.16900909 52.6247222,47.6397364 37.1163889,47.6397364 C23.8663889,47.6397364 30.6719444,29.0929636 11.3441667,29.0929636" id="Stroke-1" stroke="#71C3B7" stroke-width="2.77777778" stroke-linecap="round" stroke-linejoin="round"></path>
                <g id="Group-10" transform="translate(52.777778, 0.354477)" stroke="#71C3B7" stroke-width="2.77777778" stroke-linecap="round">
                    <path d="" id="Stroke-3"></path>
                    <path d="M0.694444444,4.86807727 L0.694444444,52.0044409" id="Stroke-5" stroke-dasharray="0,5.555555820465088"></path>
                    <g id="Group-9" transform="translate(0.000000, 53.681818)">
                        <path d="" id="Stroke-7"></path>
                    </g>
                </g>
                <path d="M60.0355556,17.27255 C60.0355556,13.5432318 57.0411111,10.5181864 53.3438889,10.5181864 C49.6494444,10.5181864 46.655,13.5432318 46.655,17.27255 C46.655,21.0018682 49.6494444,24.0269136 53.3438889,24.0269136 C57.0411111,24.0269136 60.0355556,21.0018682 60.0355556,17.27255" id="Fill-11" fill="#C4E8E2"></path>
                <path d="M56.6902778,17.27255 C56.6902778,15.4065045 55.1930556,13.8953682 53.3458333,13.8953682 C51.4986111,13.8953682 49.9986111,15.4065045 49.9986111,17.27255 C49.9986111,19.1385955 51.4986111,20.6497318 53.3458333,20.6497318 C55.1930556,20.6497318 56.6902778,19.1385955 56.6902778,17.27255" id="Fill-13" fill="#71C3B7"></path>
            </g>
        </g>
    </g>
</svg>