<?xml version="1.0" encoding="UTF-8" standalone="no"?>
<svg width="26px" height="26px" viewBox="0 0 26 26" version="1.1" xmlns="http://www.w3.org/2000/svg" xmlns:xlink="http://www.w3.org/1999/xlink">
    <!-- Generator: Sketch 3.8.3 (29802) - http://www.bohemiancoding.com/sketch -->
    <title>icon-product</title>
    <desc>Created with Sketch.</desc>
    <defs></defs>
    <g id="Page-1" stroke="none" stroke-width="1" fill="none" fill-rule="evenodd">
        <g id="Analytics" transform="translate(-712.000000, -2837.000000)">
            <g id="icon-product" transform="translate(712.000000, 2837.000000)">
                <circle id="Oval-13" fill="#8BD379" cx="13" cy="13" r="13"></circle>
                <path d="M19.587,12.706 L13.2905,6.4095 C13.035,6.1575 12.685,6 12.3,6 L7.4,6 C6.6265,6 6,6.6265 6,7.4 L6,12.3 C6,12.6885 6.1575,13.0385 6.413,13.2905 L12.713,19.5905007 C12.965,19.8424997 13.315,20 13.7,20 C14.085,20 14.4385,19.8424997 14.6905,19.5905007 L19.5905,14.6905 C19.8425,14.435 20,14.085 20,13.7 C20,13.3115 19.8425,12.9615 19.587,12.706 L19.587,12.706 Z M8.45,9.5 C7.869,9.5 7.4,9.031 7.4,8.45 C7.4,7.869 7.869,7.4 8.45,7.4 C9.031,7.4 9.5,7.869 9.5,8.45 C9.5,9.031 9.031,9.5 8.45,9.5 L8.45,9.5 Z" id="Page-1" fill="#FFFFFF"></path>
            </g>
        </g>
    </g>
</svg>