<?xml version="1.0" encoding="UTF-8" standalone="no"?>
<svg width="26px" height="26px" viewBox="0 0 26 26" version="1.1" xmlns="http://www.w3.org/2000/svg" xmlns:xlink="http://www.w3.org/1999/xlink">
    <!-- Generator: Sketch 3.8.3 (29802) - http://www.bohemiancoding.com/sketch -->
    <title>icon-sells</title>
    <desc>Created with Sketch.</desc>
    <defs></defs>
    <g id="Page-1" stroke="none" stroke-width="1" fill="none" fill-rule="evenodd">
        <g id="Analytics" transform="translate(-282.000000, -2837.000000)">
            <g id="icon-sells" transform="translate(282.000000, 2837.000000)">
                <g id="Group-5">
                    <circle id="Oval-13" fill="#7990DA" cx="13" cy="13" r="13"></circle>
                    <g id="Page-1" transform="translate(5.000000, 6.000000)" fill="#FFFFFF">
                        <path d="M11.1157895,2.23157895 C11.8736842,3.53684211 12.7157895,5.01052632 13.3894737,6.14736842 C11.2421053,6.98947368 9.97894737,8.25263158 8.8,9.43157895 C7.66315789,10.5684219 6.69473684,11.5368429 4.88421053,12.1263162 C4.29473684,11.1157903 3.41052589,9.55789474 2.61052589,8.21052632 C4.75789474,7.36842105 6.02105263,6.10526316 7.2,4.92631579 C8.33684211,3.78947368 9.30526316,2.77894737 11.1157895,2.23157895 L11.1157895,2.23157895 Z M11.9578947,0.294736842 C5.81052632,1.43157895 6.23157895,6.02105263 0.0842105263,7.15789474 L4.04210484,14.0210522 C10.1894737,12.8842105 9.76842105,8.29473684 15.9157895,7.15789474 L11.9578947,0.294736842 L11.9578947,0.294736842 L11.9578947,0.294736842 Z" id="Fill-1"></path>
                    </g>
                </g>
            </g>
        </g>
    </g>
</svg>