<?xml version="1.0" encoding="UTF-8" standalone="no"?>
<svg width="26px" height="26px" viewBox="0 0 26 26" version="1.1" xmlns="http://www.w3.org/2000/svg" xmlns:xlink="http://www.w3.org/1999/xlink">
    <!-- Generator: Sketch 3.8.3 (29802) - http://www.bohemiancoding.com/sketch -->
    <title>icon-customers</title>
    <desc>Created with Sketch.</desc>
    <defs></defs>
    <g id="Page-1" stroke="none" stroke-width="1" fill="none" fill-rule="evenodd">
        <g id="Analytics" transform="translate(-922.000000, -2837.000000)">
            <g id="icon-customers" transform="translate(922.000000, 2837.000000)">
                <circle id="Oval-13" fill="#F7DE51" cx="13" cy="13" r="13"></circle>
                <g id="Page-1" transform="translate(5.000000, 8.000000)" fill="#FFFFFF">
                    <path d="M4,1.5 C4,2.328425 3.328427,3 2.5,3 C1.671573,3 1,2.328425 1,1.5 C1,0.671575 1.671573,0 2.5,0 C3.328427,0 4,0.671575 4,1.5 L4,1.5 Z" id="Fill-1"></path>
                    <path d="M15,1.5 C15,2.328425 14.328425,3 13.5,3 C12.671575,3 12,2.328425 12,1.5 C12,0.671575 12.671575,0 13.5,0 C14.328425,0 15,0.671575 15,1.5 L15,1.5 Z" id="Fill-3"></path>
                    <path d="M13.5,4 C13.05,4 12.65,4.15 12.25,4.35 L12.25,4.35 L8,6.85 L3.75,4.35 L3.75,4.35 C3.35,4.15 2.95,4 2.5,4 C1.1,4 0,5.1 0,6.5 L0,10.5 L5,10.5 L5,7.4 L7.5,8.8999995 L7.5,8.8999995 C7.6,8.95 7.65,9 7.75,9 C7.85,9 7.9,9.05 8,9.05 L8,9.05 L8,9.05 C8.1,9.05 8.15,9.05 8.25,9 C8.35,9 8.4,8.95 8.5,8.8999995 L8.5,8.8999995 L11,7.4 L11,10.5 L16,10.5 L16,6.5 C16,5.1 14.9,4 13.5,4 L13.5,4 Z" id="Fill-4"></path>
                </g>
            </g>
        </g>
    </g>
</svg>