<?xml version="1.0" encoding="UTF-8" standalone="no"?>
<svg width="99px" height="57px" viewBox="0 0 99 57" version="1.1" xmlns="http://www.w3.org/2000/svg" xmlns:xlink="http://www.w3.org/1999/xlink">
    <!-- Generator: Sketch 39.1 (31720) - http://www.bohemiancoding.com/sketch -->
    <title>Icon/Overview</title>
    <desc>Created with Sketch.</desc>
    <defs></defs>
    <g id="Symbols" stroke="none" stroke-width="1" fill="none" fill-rule="evenodd">
        <g id="Icon/Overview">
            <g>
                <path d="M83.3333333,37.6666667 L92.9833333,37.6666667 L94.4444444,37.6666667 C96.7444444,37.6666667 98.6111111,35.8106667 98.6111111,33.5238095 C98.6111111,31.2369524 96.7444444,29.3809524 94.4444444,29.3809524 L88.5194444,29.3809524 L77.7777778,29.3809524 L75,29.3809524 C72.7,29.3809524 70.8333333,27.5249524 70.8333333,25.2380952 C70.8333333,22.9512381 72.7,21.0952381 75,21.0952381 L80.8166667,21.0952381 C83.3333333,21.0952381 84.7222222,18.6592381 84.7222222,16.952381 C84.7222222,14.6655238 82.8555556,12.8095238 80.5555556,12.8095238 L71.9805556,12.8095238 C65.4777778,7.28571429 56.9444444,5.88266667 48.6111111,5.70866667 C40.6138889,5.88266667 33.1333333,7.58952381 26.6305556,12.8095238 L18.0555556,12.8095238 C15.7555556,12.8095238 13.8888889,14.6655238 13.8888889,16.952381 C13.8888889,18.6592381 15.2777778,21.0952381 17.7944444,21.0952381 L23.6111111,21.0952381 C25.9111111,21.0952381 27.7777778,22.9512381 27.7777778,25.2380952 C27.7777778,27.5249524 25.9111111,29.3809524 23.6111111,29.3809524 L20.8333333,29.3809524 L10.0916667,29.3809524 L4.16666667,29.3809524 C1.86666667,29.3809524 0,31.2369524 0,33.5238095 C0,35.8106667 1.86666667,37.6666667 4.16666667,37.6666667 L5.62777778,37.6666667 L15.2777778,37.6666667 C17.5777778,37.6666667 19.4444444,39.5226667 19.4444444,41.8095238 C19.4444444,44.096381 17.5777778,45.952381 15.2777778,45.952381 L3.53888889,45.952381 C3.53611111,45.9689524 3.53611111,45.9855238 3.53611111,45.9993333 C3.45277778,45.9910476 3.38333333,45.952381 3.3,45.952381 C1.76666667,45.952381 1.33333333,47.1897143 1.33333333,48.7142857 C1.33333333,50.2195238 2.08333333,51.432 4.86111111,51.4651429 L4.86111111,51.4761905 L48.6111111,51.4761905 L93.75,51.4761905 L93.75,51.4651429 C96.5277778,51.432 97.2777778,50.2195238 97.2777778,48.7142857 C97.2777778,47.1897143 97.0194444,45.952381 95.4861111,45.952381 C95.4,45.952381 95.2444444,45.9910476 95.1638889,45.9993333 C95.1611111,45.9855238 95.075,45.9689524 95.0722222,45.952381 L83.3333333,45.952381 C81.0333333,45.952381 79.1666667,44.096381 79.1666667,41.8095238 C79.1666667,39.5226667 81.0333333,37.6666667 83.3333333,37.6666667" id="Fill-1" fill="#55ACEE" opacity="0.1"></path>
                <polygon id="Fill-3" fill="#FFFFFF" points="29.8611111 57 68.75 57 68.75 7.28571429 29.8611111 7.28571429"></polygon>
                <g id="Group-10" transform="translate(29.777778, 0.000000)">
                    <path d="M2.86111111,54.2380952 L38.9722222,54.2380952 L38.9722222,7.28571429 L2.86111111,7.28571429 L2.86111111,54.2380952 Z M41.75,55.6190476 C41.75,56.3813333 41.1277778,57 40.3611111,57 L1.47222222,57 C0.705555556,57 0.0833333333,56.3813333 0.0833333333,55.6190476 L0.0833333333,5.9047619 C0.0833333333,5.14247619 0.705555556,4.52380952 1.47222222,4.52380952 L40.3611111,4.52380952 C41.1277778,4.52380952 41.75,5.14247619 41.75,5.9047619 L41.75,55.6190476 Z" id="Fill-4" fill="#AAD6F7"></path>
                    <polyline id="Stroke-6" stroke="#D5EBFB" stroke-width="2.77777778" stroke-linecap="round" stroke-linejoin="round" points="5.63888889 0.380952381 45.9166667 0.380952381 45.9166667 51.4761905"></polyline>
                    <path d="M25.0833333,14.1904762 L33.4166667,14.1904762" id="Stroke-8" stroke="#55ACEE" stroke-width="2.77777778" stroke-linecap="round" stroke-linejoin="round"></path>
                </g>
                <path d="M36.8055556,48.7142857 L36.8055556,37.6666667" id="Stroke-11" stroke="#55ACEE" stroke-width="2.77777778" stroke-linecap="round" stroke-linejoin="round"></path>
                <path d="M59.0277778,48.7142857 L59.0277778,37.6666667" id="Stroke-12" stroke="#55ACEE" stroke-width="2.77777778" stroke-linecap="round" stroke-linejoin="round"></path>
                <path d="M42.3611111,48.7142857 L42.3611111,43.1904762" id="Stroke-13" stroke="#55ACEE" stroke-width="2.77777778" stroke-linecap="round" stroke-linejoin="round"></path>
                <path d="M53.4722222,48.7142857 L53.4722222,43.1904762" id="Stroke-14" stroke="#55ACEE" stroke-width="2.77777778" stroke-linecap="round" stroke-linejoin="round"></path>
                <path d="M47.9166667,48.7142857 L47.9166667,40.4285714" id="Stroke-15" stroke="#55ACEE" stroke-width="2.77777778" stroke-linecap="round" stroke-linejoin="round"></path>
                <path d="M64.5833333,48.7142857 L64.5833333,40.4285714" id="Stroke-16" stroke="#55ACEE" stroke-width="2.77777778" stroke-linecap="round" stroke-linejoin="round"></path>
                <g id="Group-25" transform="translate(37.111111, 12.809524)">
                    <path d="M17.75,6.9047619 L26.0833333,6.9047619" id="Stroke-17" stroke="#55ACEE" stroke-width="2.77777778" stroke-linecap="round" stroke-linejoin="round"></path>
                    <path d="M17.75,12.4285714 L23.3055556,12.4285714" id="Stroke-19" stroke="#55ACEE" stroke-width="2.77777778" stroke-linecap="round" stroke-linejoin="round"></path>
                    <path d="M11.5,5.52380952 C11.5,2.61552381 9.02777778,0 5.94444444,0 C2.86111111,0 0.388888889,2.61552381 0.388888889,5.52380952 C0.388888889,8.43209524 2.86111111,11.047619 5.94444444,11.047619 C9.02777778,11.047619 11.5,8.43209524 11.5,5.52380952" id="Fill-21" fill="#55ACEE" opacity="0.5"></path>
                    <path d="M11.5,5.52380952 C11.5,2.61552381 9.02777778,0 5.94444444,0 L5.94444444,5.52380952 L11.5,5.52380952 Z" id="Fill-23" fill="#55ACEE"></path>
                </g>
            </g>
        </g>
    </g>
</svg>