<?xml version="1.0" encoding="UTF-8" standalone="no"?>
<svg width="99px" height="54px" viewBox="0 0 99 54" version="1.1" xmlns="http://www.w3.org/2000/svg" xmlns:xlink="http://www.w3.org/1999/xlink">
    <!-- Generator: Sketch 39.1 (31720) - http://www.bohemiancoding.com/sketch -->
    <title>Icon/Report</title>
    <desc>Created with Sketch.</desc>
    <defs></defs>
    <g id="Symbols" stroke="none" stroke-width="1" fill="none" fill-rule="evenodd">
        <g id="Icon/Report">
            <g>
                <path d="M83.3333333,39.55 L92.9833333,39.55 L94.4444444,39.55 C96.7444444,39.55 98.6111111,37.6684 98.6111111,35.35 C98.6111111,33.0316 96.7444444,31.15 94.4444444,31.15 L88.5194444,31.15 L77.7777778,31.15 L75,31.15 C72.7,31.15 70.8333333,29.2684 70.8333333,26.95 C70.8333333,24.6316 72.7,22.75 75,22.75 L80.8166667,22.75 C83.3333333,22.75 84.7222222,20.2804 84.7222222,18.55 C84.7222222,16.2316 82.8555556,14.35 80.5555556,14.35 L71.9805556,14.35 C65.4777778,8.75 56.9444444,7.3276 48.6111111,7.1512 C40.6138889,7.3276 33.1333333,9.058 26.6305556,14.35 L18.0555556,14.35 C15.7555556,14.35 13.8888889,16.2316 13.8888889,18.55 C13.8888889,20.2804 15.2777778,22.75 17.7944444,22.75 L23.6111111,22.75 C25.9111111,22.75 27.7777778,24.6316 27.7777778,26.95 C27.7777778,29.2684 25.9111111,31.15 23.6111111,31.15 L20.8333333,31.15 L10.0916667,31.15 L4.16666667,31.15 C1.86666667,31.15 0,33.0316 0,35.35 C0,37.6684 1.86666667,39.55 4.16666667,39.55 L5.62777778,39.55 L15.2777778,39.55 C17.5777778,39.55 19.4444444,41.4316 19.4444444,43.75 C19.4444444,46.0684 17.5777778,47.95 15.2777778,47.95 L3.53888889,47.95 C3.53611111,47.9668 3.53611111,47.9836 3.53611111,47.9976 C3.45277778,47.9892 3.38333333,47.95 3.3,47.95 C1.76666667,47.95 1.33333333,49.2044 1.33333333,50.75 C1.33333333,52.276 2.08333333,53.5052 4.86111111,53.5388 L4.86111111,53.55 L48.6111111,53.55 L93.75,53.55 L93.75,53.5388 C96.5277778,53.5052 97.2777778,52.276 97.2777778,50.75 C97.2777778,49.2044 97.0194444,47.95 95.4861111,47.95 C95.4,47.95 95.2444444,47.9892 95.1638889,47.9976 C95.1611111,47.9836 95.075,47.9668 95.0722222,47.95 L83.3333333,47.95 C81.0333333,47.95 79.1666667,46.0684 79.1666667,43.75 C79.1666667,41.4316 81.0333333,39.55 83.3333333,39.55" id="Fill-1" fill="#E75A70" opacity="0.1"></path>
                <path d="M70.4861111,22.75 C70.4861111,33.768 61.625,42.7 50.6944444,42.7 C39.7638889,42.7 30.9027778,33.768 30.9027778,22.75 C30.9027778,11.732 39.7638889,2.8 50.6944444,2.8 C61.625,2.8 70.4861111,11.732 70.4861111,22.75" id="Fill-3" fill="#FFFFFF"></path>
                <path d="M43.75,14.35 C42.2138889,14.35 40.9722222,15.6016 40.9722222,17.15 L40.9722222,39.6816 C40.9722222,40.7512 43.75,41.552 46.5277778,42.0672 L46.5277778,17.15 C46.5277778,15.6016 45.2861111,14.35 43.75,14.35" id="Fill-5" fill="#E75A70"></path>
                <path d="M54.8611111,28.35 C54.8611111,26.8016 53.6194444,25.55 52.0833333,25.55 C50.5472222,25.55 49.3055556,26.8016 49.3055556,28.35 L49.3055556,42.35 C49.3055556,42.434 48.9944444,42.5068 49.0027778,42.588 C49.675,42.658 50.1777778,42.7 50.8666667,42.7 C52.0527778,42.7 53.4694444,42.5768 54.5972222,42.3724 C54.5972222,42.364 54.8611111,42.3584 54.8611111,42.35 L54.8611111,28.35 Z" id="Fill-7" fill="#E75A70"></path>
                <path d="M60.4166667,19.95 C58.8805556,19.95 57.6388889,21.2016 57.6388889,22.75 L57.6388889,41.664 C57.6388889,40.9836 60.4166667,39.9812 63.1944444,38.724 L63.1944444,22.75 C63.1944444,21.2016 61.9527778,19.95 60.4166667,19.95" id="Fill-9" fill="#E75A70"></path>
                <path d="M68.6819444,14.4774 C68.4736111,14.427 68.6236111,14.3514 68.4013889,14.3514 C66.8680556,14.3514 65.9708333,15.603 65.9708333,17.1514 L65.9708333,36.1914 C68.7486111,32.641 70.8319444,27.9314 70.8319444,22.7514 C70.8319444,19.7974 69.8291667,17.0002 68.6819444,14.4774" id="Fill-11" fill="#E75A70"></path>
                <path d="M62.5,38.72428 C60.8277778,39.98148 58.9611111,40.98388 56.9444444,41.66428 C56.0444444,41.96668 55.1138889,42.20188 54.1638889,42.37268 C53.0333333,42.57428 51.8805556,42.70028 50.6944444,42.70028 C50.0055556,42.70028 49.3277778,42.65828 48.6555556,42.58828 C47.6916667,42.48748 46.7527778,42.30268 45.8333333,42.06468 C43.8472222,41.55228 41.975,40.75148 40.2777778,39.68188 C39.2916667,39.06028 38.3611111,38.35748 37.5,37.57628 C34.9833333,35.29988 33.0472222,32.39068 31.9444444,29.08948 C31.2777778,27.09588 30.9027778,24.96788 30.9027778,22.75028 C30.9027778,11.74908 39.7805556,2.80028 50.6944444,2.80028 C58.6777778,2.80028 65.5555556,7.59948 68.6833333,14.47628 C69.8305556,17.00188 70.4861111,19.79628 70.4861111,22.75028 C70.4861111,27.93028 68.5,32.63988 65.2777778,36.19028 C64.4333333,37.11988 63.5055556,37.96828 62.5,38.72428 M80.0777778,49.68908 L67.9111111,37.42508 C71.2444444,33.46028 73.2638889,28.34188 73.2638889,22.75028 C73.2638889,10.20348 63.1388889,0.00028 50.6944444,0.00028 C38.25,0.00028 28.125,10.20348 28.125,22.75028 C28.125,35.29428 38.25,45.50028 50.6944444,45.50028 C56.5944444,45.50028 61.9555556,43.18748 65.9805556,39.43828 L78.1138889,51.66868 C78.3861111,51.94308 78.7416667,52.07748 79.0972222,52.07748 C79.4527778,52.07748 79.8055556,51.94308 80.0777778,51.66868 C80.6194444,51.12268 80.6194444,50.23508 80.0777778,49.68908" id="Fill-13" fill="#E75A70" opacity="0.5"></path>
                <path d="M35.4166667,19.95 C33.8805556,19.95 32.6388889,21.2016 32.6388889,22.75 L32.6388889,29.0892 C32.6388889,32.3904 35.4166667,35.2996 38.1944444,37.5788 L38.1944444,22.75 C38.1944444,21.2016 36.9527778,19.95 35.4166667,19.95" id="Fill-15" fill="#E75A70"></path>
            </g>
        </g>
    </g>
</svg>