<?xml version="1.0" encoding="utf-8"?>
<!-- Generator: Avocode 0.4.0 - http://avocode.com -->
<svg height="51" width="190" xmlns:xlink="http://www.w3.org/1999/xlink" xmlns="http://www.w3.org/2000/svg" viewBox="0 0 190 51">
    <path fill="#71c3b7" fill-rule="evenodd" d="M 55.47 45.41 C 53.38 47.45 50.62 48.58 47.7 48.58 C 42.89 48.58 38.52 45.37 37.08 40.79 L 36.9 40.19 L 36.27 40.23 C 35.42 40.29 34.04 40.23 32.74 40.16 C 31.87 40.12 30.89 40.06 30.08 40.06 C 29.13 40.06 27.92 40.1 26.76 40.14 L 26.63 40.15 C 25.67 40.18 24.75 40.21 24.07 40.22 L 23.49 40.22 L 23.32 40.78 C 21.89 45.37 17.52 48.58 12.7 48.58 C 9.78 48.58 7.02 47.45 4.93 45.41 C 4.01 44.51 3.25 43.46 2.7 42.33 C 3.81 43.25 5.23 43.81 6.78 43.81 C 9.48 43.81 11.88 42.1 12.77 39.56 L 13.12 38.56 L 12.07 38.5 C 8 38.27 4.5 35.82 2.76 32.36 C 3.85 33.27 5.26 33.8 6.78 33.8 C 10.34 33.8 13.12 31.05 13.12 27.55 L 13.23 19.62 L 13.21 19.43 C 13.17 18.99 13.15 18.77 13.15 18.29 C 13.15 9.14 20.58 1.98 30.06 1.98 C 34.16 1.98 38.17 3.72 41.34 6.87 C 44.37 9.88 46.38 13.99 46.86 18.14 L 46.89 18.28 C 46.93 18.42 46.96 18.6 46.96 18.73 L 47.28 27.38 C 47.28 30.88 50.12 33.73 53.62 33.73 C 55.16 33.73 56.57 33.18 57.67 32.27 C 55.94 35.77 52.43 38.25 48.33 38.48 L 47.28 38.54 L 47.63 39.54 C 48.52 42.09 50.92 43.8 53.62 43.8 C 55.17 43.8 56.6 43.24 57.7 42.32 C 57.15 43.46 56.4 44.5 55.47 45.41 M 59.38 36.74 C 58.84 36.74 58.4 37.16 58.37 37.7 C 58.24 40.23 56.16 42.21 53.62 42.21 C 51.95 42.21 50.43 41.33 49.57 39.95 C 55.58 39.05 60.24 33.88 60.4 27.71 C 60.41 27.15 59.97 26.69 59.47 26.67 L 59.38 26.67 C 58.84 26.67 58.4 27.09 58.37 27.63 C 58.24 30.16 56.16 32.14 53.62 32.14 C 51 32.14 48.86 30 48.86 27.35 L 48.54 18.73 C 48.56 18.42 48.48 18.08 48.43 17.9 C 47.9 13.41 45.73 8.99 42.46 5.74 C 38.99 2.29 34.59 0.39 30.06 0.39 C 19.69 0.39 11.56 8.26 11.56 18.29 C 11.56 18.84 11.59 19.13 11.63 19.6 L 11.64 19.7 L 11.53 27.56 C 11.53 30.19 9.45 32.27 6.78 32.27 C 4.24 32.27 2.16 30.32 2.03 27.77 C 2 27.23 1.56 26.92 0.98 26.92 L 0.98 26.92 C 0.43 26.92 -0.01 27.28 0 27.83 C 0.15 33.99 4.82 39.03 10.83 39.93 C 9.97 41.3 8.45 42.13 6.78 42.13 C 4.24 42.13 2.15 40.06 2.03 37.53 C 2 36.99 1.56 36.4 0.98 36.4 L 0.98 36.4 C 0.42 36.4 -0.01 37.06 0 37.61 C 0.08 40.93 1.44 44.22 3.82 46.55 C 6.21 48.88 9.36 50.17 12.7 50.17 C 18.01 50.17 22.84 46.75 24.65 41.8 C 25.25 41.78 25.96 41.76 26.71 41.73 L 26.82 41.73 C 27.96 41.69 29.15 41.65 30.08 41.65 C 30.85 41.65 31.81 41.7 32.65 41.75 C 33.73 41.8 34.89 41.86 35.77 41.84 C 37.59 46.77 42.41 50.16 47.7 50.16 C 51.03 50.16 54.19 48.88 56.58 46.55 C 58.96 44.22 60.32 41.1 60.4 37.78 C 60.41 37.23 59.98 36.76 59.38 36.74" />
    <path fill="#000000" fill-rule="evenodd" d="M 94.87 26.43 C 94.65 27.04 94.32 27.58 93.89 28.04 C 93.46 28.51 92.94 28.88 92.33 29.16 C 91.73 29.44 91.04 29.58 90.27 29.58 C 89.5 29.58 88.82 29.44 88.21 29.16 C 87.6 28.88 87.09 28.51 86.65 28.04 C 86.22 27.58 85.9 27.04 85.68 26.43 C 85.45 25.83 85.34 25.2 85.34 24.55 C 85.34 23.89 85.45 23.27 85.68 22.66 C 85.9 22.05 86.22 21.52 86.65 21.05 C 87.09 20.59 87.6 20.21 88.21 19.93 C 88.82 19.65 89.5 19.51 90.27 19.51 C 91.04 19.51 91.73 19.65 92.33 19.93 C 92.94 20.21 93.46 20.59 93.89 21.05 C 94.32 21.52 94.65 22.05 94.87 22.66 C 95.09 23.27 95.2 23.89 95.2 24.55 C 95.2 25.2 95.09 25.83 94.87 26.43 M 97.14 18.29 C 96.43 17.5 95.57 16.87 94.57 16.42 C 93.57 15.97 92.47 15.74 91.29 15.74 C 90.49 15.74 89.79 15.82 89.19 15.98 C 88.58 16.15 88.05 16.36 87.58 16.61 C 87.11 16.87 86.72 17.14 86.39 17.43 C 86.07 17.73 85.8 18.01 85.59 18.29 L 85.48 18.29 L 85.48 6.51 L 81.29 6.51 L 81.29 32.94 L 85.27 32.94 L 85.27 30.42 L 85.34 30.42 C 85.95 31.44 86.76 32.19 87.79 32.66 C 88.82 33.12 89.92 33.35 91.11 33.35 C 92.39 33.35 93.55 33.13 94.57 32.67 C 95.6 32.22 96.47 31.6 97.19 30.8 C 97.91 30.01 98.46 29.08 98.84 28.01 C 99.21 26.94 99.39 25.78 99.39 24.55 C 99.39 23.31 99.2 22.16 98.8 21.09 C 98.4 20.01 97.85 19.08 97.14 18.29" />
    <path fill="#000000" fill-rule="evenodd" d="M 112.29 15.98 C 112.04 15.91 111.79 15.86 111.54 15.81 C 111.3 15.76 111.05 15.74 110.79 15.74 C 109.67 15.74 108.68 16.01 107.82 16.54 C 106.96 17.08 106.29 17.84 105.83 18.81 L 105.76 18.81 L 105.76 16.16 L 101.56 16.16 L 101.56 32.94 L 105.76 32.94 L 105.76 23.95 C 105.76 23.72 105.81 23.37 105.91 22.9 C 106.02 22.44 106.23 21.97 106.54 21.51 C 106.86 21.04 107.31 20.63 107.91 20.26 C 108.5 19.9 109.29 19.72 110.27 19.72 C 110.59 19.72 110.92 19.75 111.26 19.81 C 111.6 19.87 111.94 19.94 112.29 20.04 L 112.29 15.98 Z M 112.29 15.98" />
    <path fill="#000000" fill-rule="evenodd" d="M 123.65 26.36 C 123.65 27.55 123.31 28.49 122.62 29.18 C 121.93 29.87 120.87 30.21 119.42 30.21 C 119.07 30.21 118.72 30.17 118.37 30.09 C 118.02 30.01 117.71 29.87 117.43 29.68 C 117.15 29.5 116.92 29.27 116.75 29 C 116.57 28.74 116.49 28.4 116.49 28.01 C 116.49 27.4 116.71 26.93 117.15 26.59 C 117.59 26.25 118.13 26 118.78 25.82 C 119.42 25.65 120.1 25.54 120.82 25.49 C 121.54 25.44 122.2 25.42 122.78 25.42 L 123.65 25.42 L 123.65 26.36 Z M 127.41 20.28 C 127.28 19.72 127.07 19.17 126.78 18.62 C 126.49 18.07 126.07 17.59 125.54 17.17 C 125 16.75 124.33 16.41 123.51 16.14 C 122.7 15.87 121.69 15.74 120.51 15.74 C 119.18 15.74 117.89 15.95 116.64 16.37 C 115.4 16.79 114.31 17.48 113.38 18.43 L 115.58 20.63 C 116.14 20.1 116.8 19.67 117.57 19.36 C 118.34 19.04 119.17 18.88 120.05 18.88 C 121.17 18.88 122.09 19.15 122.81 19.67 C 123.54 20.2 123.9 20.98 123.9 22.03 L 123.9 22.48 L 122.85 22.48 C 122.15 22.48 121.4 22.5 120.61 22.54 C 119.82 22.57 119.03 22.65 118.25 22.78 C 117.47 22.91 116.72 23.1 116 23.36 C 115.27 23.62 114.64 23.96 114.09 24.39 C 113.54 24.82 113.11 25.36 112.78 26 C 112.46 26.64 112.29 27.41 112.29 28.32 C 112.29 29.16 112.47 29.89 112.82 30.52 C 113.17 31.15 113.63 31.68 114.2 32.1 C 114.77 32.52 115.42 32.83 116.15 33.04 C 116.89 33.25 117.64 33.36 118.41 33.36 C 119.53 33.36 120.55 33.14 121.48 32.71 C 122.42 32.28 123.19 31.58 123.79 30.63 L 123.9 30.63 L 123.9 32.94 L 127.67 32.94 L 127.67 23.29 C 127.67 22.89 127.66 22.43 127.64 21.91 C 127.61 21.38 127.54 20.84 127.41 20.28 L 127.41 20.28 Z M 127.41 20.28" />
    <path fill="none" fill-rule="evenodd" d="M 0 50.17 L 189.64 50.17 L 189.64 0.39 L 0 0.39 L 0 50.17 Z M 0 50.17" />
    <path fill="#000000" fill-rule="evenodd" d="M 130.5 32.94 L 134.7 32.94 L 134.7 16.16 L 130.5 16.16 L 130.5 32.94 Z M 130.5 32.94" />
    <path fill="#000000" fill-rule="evenodd" d="M 132.56 6.53 C 131.79 6.53 131.16 6.78 130.66 7.28 C 130.16 7.78 129.91 8.37 129.91 9.05 C 129.91 9.72 130.16 10.31 130.66 10.81 C 131.16 11.32 131.79 11.56 132.56 11.56 C 133.33 11.56 133.98 11.33 134.5 10.85 C 135.03 10.37 135.29 9.77 135.29 9.05 C 135.29 8.33 135.03 7.73 134.5 7.25 C 133.98 6.77 133.33 6.53 132.56 6.53" />
    <path fill="#000000" fill-rule="evenodd" d="M 151.72 17.77 C 151.23 17.16 150.59 16.67 149.81 16.3 C 149.03 15.93 148.08 15.74 146.97 15.74 C 145.57 15.74 144.46 16.05 143.64 16.67 C 142.83 17.28 142.22 18.01 141.83 18.85 L 141.76 18.85 L 141.76 16.16 L 137.77 16.16 L 137.77 32.94 L 141.97 32.94 L 141.97 23.78 C 141.97 23.22 142.04 22.68 142.18 22.17 C 142.32 21.66 142.54 21.2 142.86 20.81 C 143.17 20.41 143.57 20.1 144.05 19.86 C 144.52 19.63 145.11 19.51 145.81 19.51 C 146.53 19.51 147.1 19.68 147.52 20.02 C 147.94 20.36 148.25 20.78 148.45 21.28 C 148.65 21.78 148.77 22.32 148.82 22.89 C 148.86 23.46 148.89 23.98 148.89 24.44 L 148.89 32.94 L 153.08 32.94 L 153.08 22.34 C 153.08 21.48 152.98 20.66 152.77 19.86 C 152.56 19.07 152.21 18.37 151.72 17.77" />
    <path fill="#000000" fill-rule="evenodd" d="M 156.16 32.94 L 160.35 32.94 L 160.35 16.16 L 156.16 16.16 L 156.16 32.94 Z M 156.16 32.94" />
    <path fill="#000000" fill-rule="evenodd" d="M 158.22 6.53 C 157.45 6.53 156.82 6.78 156.31 7.28 C 155.81 7.78 155.56 8.37 155.56 9.05 C 155.56 9.72 155.81 10.31 156.31 10.81 C 156.82 11.32 157.45 11.56 158.22 11.56 C 158.99 11.56 159.64 11.33 160.16 10.85 C 160.68 10.37 160.95 9.77 160.95 9.05 C 160.95 8.33 160.68 7.73 160.16 7.25 C 159.64 6.77 158.99 6.53 158.22 6.53" />
    <path fill="#000000" fill-rule="evenodd" d="M 185.27 16.16 L 181.08 27.8 L 181.01 27.8 L 176.32 16.16 L 173.59 16.16 L 171.71 16.16 L 169.12 16.16 L 169.12 13.56 C 169.12 13.09 169.15 12.65 169.21 12.23 C 169.27 11.81 169.4 11.44 169.6 11.13 C 169.79 10.81 170.07 10.56 170.42 10.38 C 170.77 10.19 171.23 10.1 171.82 10.1 C 172.12 10.1 172.41 10.12 172.69 10.17 C 172.97 10.21 173.26 10.27 173.56 10.34 L 173.84 6.78 C 173.03 6.61 172.14 6.53 171.19 6.53 C 169.88 6.53 168.82 6.71 168.01 7.07 C 167.19 7.43 166.56 7.95 166.1 8.63 C 165.65 9.3 165.34 10.11 165.17 11.06 C 165.01 12 164.93 13.06 164.93 14.22 L 164.93 16.16 L 163.22 16.16 L 163.22 19.72 L 164.93 19.72 L 164.93 32.94 L 169.12 32.94 L 169.12 19.72 L 173.22 19.72 L 178.88 33.08 L 178.07 35.07 C 177.89 35.51 177.71 35.89 177.55 36.2 C 177.39 36.52 177.18 36.77 176.94 36.97 C 176.69 37.17 176.39 37.32 176.05 37.41 C 175.7 37.5 175.26 37.55 174.75 37.55 C 174.38 37.55 174.01 37.51 173.65 37.43 C 173.29 37.35 172.95 37.25 172.62 37.13 L 172.1 40.9 C 173.14 41.18 174.22 41.32 175.31 41.32 C 176.24 41.32 177.04 41.22 177.7 41.03 C 178.37 40.83 178.95 40.53 179.44 40.12 C 179.92 39.71 180.35 39.21 180.71 38.62 C 181.07 38.02 181.4 37.33 181.71 36.54 L 189.64 16.16 L 185.27 16.16 Z M 185.27 16.16" />
</svg>