<?xml version="1.0" encoding="UTF-8" standalone="no"?>
<!-- Created with Inkscape (http://www.inkscape.org/) -->

<svg
   xmlns:osb="http://www.openswatchbook.org/uri/2009/osb"
   xmlns:dc="http://purl.org/dc/elements/1.1/"
   xmlns:cc="http://creativecommons.org/ns#"
   xmlns:rdf="http://www.w3.org/1999/02/22-rdf-syntax-ns#"
   xmlns:svg="http://www.w3.org/2000/svg"
   xmlns="http://www.w3.org/2000/svg"
   xmlns:sodipodi="http://sodipodi.sourceforge.net/DTD/sodipodi-0.dtd"
   xmlns:inkscape="http://www.inkscape.org/namespaces/inkscape"
   width="380mm"
   height="500mm"
   viewBox="0 0 380 500"
   version="1.1"
   id="svg9050"
   inkscape:version="0.92.4 (5da689c313, 2019-01-14)"
   sodipodi:docname="purple_shape_320.svg">
  <defs
     id="defs9044">
    <inkscape:perspective
       id="perspective8818"
       inkscape:persp3d-origin="116.34799 : 18.64388 : 1"
       inkscape:vp_z="221.34799 : 68.14388 : 1"
       inkscape:vp_y="0 : 999.99996 : 0"
       inkscape:vp_x="11.348 : 68.14388 : 1"
       sodipodi:type="inkscape:persp3d" />
    <linearGradient
       osb:paint="solid"
       id="linearGradient8021">
      <stop
         id="stop8019"
         offset="0"
         style="stop-color:#000000;stop-opacity:1;" />
    </linearGradient>
    <linearGradient
       osb:paint="solid"
       id="linearGradient7925">
      <stop
         id="stop7923"
         offset="0"
         style="stop-color:#ffffff;stop-opacity:1;" />
    </linearGradient>
    <marker
       style="overflow:visible"
       id="marker6967"
       refX="0"
       refY="0"
       orient="auto"
       inkscape:stockid="DistanceStart"
       inkscape:isstock="true">
      <g
         id="g6965"
         style="fill:#280b0b;fill-opacity:0.04705882;stroke:none;stroke-opacity:1">
        <path
           inkscape:connector-curvature="0"
           style="fill:#280b0b;fill-opacity:0.04705882;stroke:none;stroke-width:1.14999998;stroke-linecap:square;stroke-opacity:1"
           d="M 0,0 H 2"
           id="path6959" />
        <path
           inkscape:connector-curvature="0"
           style="fill:#280b0b;fill-opacity:0.04705882;fill-rule:evenodd;stroke:none;stroke-opacity:1"
           d="M 0,0 13,4 9,0 13,-4 Z"
           id="path6961" />
        <path
           inkscape:connector-curvature="0"
           style="fill:#280b0b;fill-opacity:0.04705882;stroke:none;stroke-width:1;stroke-linecap:square;stroke-opacity:1"
           d="M 0,-4 V 40"
           id="path6963" />
      </g>
    </marker>
    <marker
       inkscape:isstock="true"
       inkscape:stockid="DistanceStart"
       orient="auto"
       refY="0"
       refX="0"
       id="marker6326"
       style="overflow:visible">
      <g
         style="fill:#550000;fill-opacity:0.51999996;stroke:none;stroke-opacity:0.43921569"
         id="g6324">
        <path
           inkscape:connector-curvature="0"
           id="path6318"
           d="M 0,0 H 2"
           style="fill:#550000;fill-opacity:0.51999996;stroke:none;stroke-width:1.14999998;stroke-linecap:square;stroke-opacity:0.43921569" />
        <path
           inkscape:connector-curvature="0"
           id="path6320"
           d="M 0,0 13,4 9,0 13,-4 Z"
           style="fill:#550000;fill-opacity:0.51999996;fill-rule:evenodd;stroke:none;stroke-opacity:0.43921569" />
        <path
           inkscape:connector-curvature="0"
           id="path6322"
           d="M 0,-4 V 40"
           style="fill:#550000;fill-opacity:0.51999996;stroke:none;stroke-width:1;stroke-linecap:square;stroke-opacity:0.43921569" />
      </g>
    </marker>
    <marker
       inkscape:isstock="true"
       inkscape:stockid="DistanceStart"
       orient="auto"
       refY="0"
       refX="0"
       id="DistanceStart"
       style="overflow:visible">
      <g
         style="fill:#550000;fill-opacity:0.51999996;stroke:none;stroke-opacity:0.43921569"
         id="g2300">
        <path
           inkscape:connector-curvature="0"
           id="path2306"
           d="M 0,0 H 2"
           style="fill:#550000;fill-opacity:0.51999996;stroke:none;stroke-width:1.14999998;stroke-linecap:square;stroke-opacity:0.43921569" />
        <path
           inkscape:connector-curvature="0"
           id="path2302"
           d="M 0,0 13,4 9,0 13,-4 Z"
           style="fill:#550000;fill-opacity:0.51999996;fill-rule:evenodd;stroke:none;stroke-opacity:0.43921569" />
        <path
           inkscape:connector-curvature="0"
           id="path2304"
           d="M 0,-4 V 40"
           style="fill:#550000;fill-opacity:0.51999996;stroke:none;stroke-width:1;stroke-linecap:square;stroke-opacity:0.43921569" />
      </g>
    </marker>
    <linearGradient
       osb:paint="solid"
       id="linearGradient6002">
      <stop
         id="stop6000"
         offset="0"
         style="stop-color:#c8be4b;stop-opacity:0.43921569;" />
    </linearGradient>
    <pattern
       y="0"
       x="0"
       height="6"
       width="6"
       patternUnits="userSpaceOnUse"
       id="EMFhbasepattern" />
  </defs>
  <sodipodi:namedview
     id="base"
     pagecolor="#ffffff"
     bordercolor="#666666"
     borderopacity="1.0"
     inkscape:pageopacity="0.0"
     inkscape:pageshadow="2"
     inkscape:zoom="0.38991228"
     inkscape:cx="-115.41058"
     inkscape:cy="529.69731"
     inkscape:document-units="mm"
     inkscape:current-layer="g9138"
     showgrid="false"
     height="110mm"
     inkscape:window-width="1600"
     inkscape:window-height="837"
     inkscape:window-x="-8"
     inkscape:window-y="-8"
     inkscape:window-maximized="1" />
  <metadata
     id="metadata9047">
    <rdf:RDF>
      <cc:Work
         rdf:about="">
        <dc:format>image/svg+xml</dc:format>
        <dc:type
           rdf:resource="http://purl.org/dc/dcmitype/StillImage" />
        <dc:title />
      </cc:Work>
    </rdf:RDF>
  </metadata>
  <g
     inkscape:label="Calque 1"
     inkscape:groupmode="layer"
     id="layer1"
     transform="translate(0,203)">
    <g
       id="g9138"
       transform="matrix(1.8010497,0,0,1.8171775,12.787887,462.57786)"
       style="fill:#8080ff">
      <path
         sodipodi:nodetypes="ccccc"
         inkscape:connector-curvature="0"
         id="path9040"
         d="m 33.58395,-153.02976 c 119.18334,-7.76502 127.79605,-3.65378 132.80228,5.82735 8.10207,17.15661 23.69512,52.45272 4.29383,50.60595 -43.55178,-2.76032 -119.198988,22.24529 -130.655354,-8.28097 -6.063099,-16.82135 -27.853665,-49.64832 -6.440756,-48.15233 z"
         style="display:none;fill:#8080ff;stroke:#000000;stroke-width:0.26458332px;stroke-linecap:butt;stroke-linejoin:miter;stroke-opacity:1" />
      <path
         sodipodi:nodetypes="sssssssccssccsssss"
         inkscape:connector-curvature="0"
         id="path9042"
         d="m 69.774259,-91.234052 c -8.294883,-0.482615 -14.645483,-1.77462 -19.522135,-3.971705 -2.916859,-1.314133 -5.10169,-2.83113 -6.905516,-4.794703 -1.524363,-1.65938 -2.24454,-2.86509 -3.791387,-6.34751 -1.504482,-3.38704 -1.883632,-4.15496 -5.339588,-10.81447 -4.292645,-8.27179 -5.449181,-10.65484 -6.992371,-14.40788 -3.124513,-7.59882 -3.451766,-12.30919 -1.028789,-14.80805 1.082589,-1.1165 3.231683,-1.78007 5.778676,-1.78429 43.309255,5.85301 66.714322,-7.4773 119.935881,-2.29076 6.58485,0.8213 10.35224,2.5443 12.62792,5.13741 1.02825,1.17168 1.71999,2.36009 3.9127,6.72203 7.67534,15.26849 11.28064,25.66356 11.29865,32.57711 0.009,3.51803 -0.7353,5.63941 -2.48002,7.066715 -1.49381,1.222046 -2.91733,1.558891 -6.20544,1.468357 -4.55006,-0.125271 -15.00634,-0.05485 -18.01879,0.121396 -8.85167,0.51781 -16.74601,1.239342 -34.27403,3.132615 -15.74622,1.700823 -22.377003,2.301006 -31.667055,2.866368 -3.17681,0.193331 -14.734828,0.278286 -17.328706,0.127367 z"
         style="display:none;opacity:1;fill:#ff968f;fill-opacity:1;stroke:none;stroke-width:0.14592649;stroke-opacity:1;paint-order:stroke fill markers" />
      <path
         style="display:none;opacity:1;fill:#ff0000;fill-opacity:1;stroke:none;stroke-width:1.04623604;stroke-opacity:1;paint-order:stroke fill markers"
         d="m 520.2588,452.10504 c -79.91938,-4.50834 -139.4647,-23.47393 -171.24842,-54.5438 -13.92864,-13.61581 -19.69975,-22.932 -33.42873,-53.96339 -3.48203,-7.87036 -20.81556,-43.03468 -38.51897,-78.14295 -32.73551,-64.91899 -42.39315,-85.97513 -50.79941,-110.75584 -14.62059,-43.09983 -12.88494,-72.088057 5.02589,-83.940886 5.54773,-3.671311 13.64639,-6.348697 23.61106,-7.805725 7.0471,-1.030422 10.72379,-0.893014 25.37573,0.948366 48.5705,6.104082 80.52436,7.921302 139.54419,7.935891 73.74121,0.01823 97.72565,-1.700853 246.38858,-17.659892 120.29799,-12.914049 164.44371,-15.690748 249.00417,-15.661986 60.27619,0.0205 88.97031,1.170235 142.28811,5.701281 53.1315,4.515219 78.5309,11.439409 99.4621,27.114575 13.5019,10.111463 17.9358,16.958234 40.6601,62.786246 50.1862,101.21055 73.375,169.54408 73.4764,216.52293 0.031,14.67248 -0.4181,19.03972 -2.8393,27.57017 -4.4823,15.79247 -16.7111,27.08703 -32.4109,29.93492 -3.9301,0.71289 -32.7909,1.27663 -77.9098,1.52182 -61.007,0.33152 -75.9467,0.72221 -100.4386,2.62652 -43.7737,3.40353 -98.19408,8.5351 -151.70424,14.30495 -182.59159,19.6883 -230.89827,23.91602 -292.42296,25.59238 -41.07132,1.11907 -72.26848,1.0904 -93.115,-0.0856 z"
         id="path877"
         inkscape:connector-curvature="0"
         transform="matrix(0.14690507,0,0,0.14560126,-7.100241,-157.15463)" />
      <path
         style="display:none;opacity:1;fill:#ff0000;fill-opacity:1;stroke:none;stroke-width:1.04623604;stroke-opacity:1;paint-order:stroke fill markers"
         d="m 516.59697,451.54954 c -41.7284,-2.8869 -83.95194,-10.93357 -111.2316,-21.19774 -14.57067,-5.48232 -33.77589,-15.43351 -43.08821,-22.32614 -10.7006,-7.9202 -21.7334,-19.45809 -28.42991,-29.73145 -3.23263,-4.95929 -9.37523,-16.60781 -13.65022,-25.8856 -4.27498,-9.27779 -23.71831,-49.11893 -43.20738,-88.53587 -37.04081,-74.91556 -44.17331,-90.60022 -51.21205,-112.61732 -7.84973,-24.55389 -10.39168,-45.40981 -7.29468,-59.850635 2.64509,-12.333606 11.18348,-21.03115 24.88777,-25.351671 11.03234,-3.478144 20.88158,-3.597851 47.2393,-0.574143 51.18731,5.872107 87.31051,7.452095 150.65799,6.589608 61.05415,-0.831262 84.26536,-2.582915 210.29343,-15.869959 109.40318,-11.534295 144.49515,-14.426147 196.69237,-16.208987 109.88505,-3.753215 226.88462,2.368647 271.02342,14.180976 17.3845,4.652386 36.4726,15.071603 46.1752,25.204613 8.1749,8.537509 23.5561,36.744498 45.8372,84.058858 32.4073,68.81758 50.5002,119.71773 57.1234,160.70326 2.3229,14.37445 2.6056,41.34536 0.5197,49.59018 -4.3732,17.28711 -13.769,27.97888 -28.66,32.61349 -5.7608,1.79295 -12.881,2.04283 -85.8952,3.01458 -43.7875,0.58276 -82.4385,1.31047 -85.891,1.61712 -3.4526,0.30664 -20.1662,1.70861 -37.1414,3.11546 -41.12139,3.40803 -69.59512,6.21581 -168.96713,16.66175 -120.37222,12.65348 -158.49642,16.20033 -208.72408,19.41845 -16.83082,1.07835 -125.59163,2.17438 -137.05692,1.38117 z"
         id="path2275"
         inkscape:connector-curvature="0"
         transform="matrix(0.14690507,0,0,0.14560126,-7.100241,-157.15463)" />
      <path
         style="opacity:1;fill:#aaaaff;fill-opacity:1;stroke:none;stroke-width:1.5816288;stroke-linejoin:bevel;stroke-miterlimit:4;stroke-dasharray:none;stroke-opacity:1;paint-order:stroke fill markers"
         d="m 47.855381,-108.46921 c -9.06657,-3.49081 -14.911921,-8.07396 -19.883452,-15.59007 -5.009736,-7.57392 -7.881779,-15.0067 -10.437586,-27.01235 -0.749798,-3.52204 -3.984921,-24.19017 -11.5108292,-73.53877 -7.0475122,-46.21172 -7.3864749,-48.64649 -8.8087833,-63.27455 -1.1480289,-11.80718 -1.3786639,-16.04391 -1.3870674,-25.48009 -0.00902,-10.13975 0.3043494,-13.23804 1.8318494,-18.1106 0.7806452,-2.4902 1.42528514,-3.88293 2.25637854,-4.87482 2.55786896,-3.05284 3.77873666,-3.16914 10.57638096,-1.0076 12.851275,4.08656 23.470403,4.90209 36.093969,2.77184 7.010992,-1.18307 12.174028,-2.68829 37.097875,-10.81514 20.100174,-6.55404 26.838604,-7.81364 41.783924,-7.81064 10.84771,9.1e-4 17.38861,0.67385 24.30887,2.49614 12.50884,3.294 17.20991,7.01647 21.34935,16.90531 2.275,5.43474 3.45462,11.16316 7.1489,34.71645 8.24736,52.5819 12.68966,90.33054 13.7861,117.14819 0.45001,11.00755 0.31854,26.86841 -0.26519,31.98915 -0.85029,7.45923 -2.69741,13.18676 -4.98516,15.45811 -1.06384,1.05621 -2.31864,1.22612 -13.10126,1.77427 -12.63927,0.64252 -20.37303,1.44221 -23.7375,2.4545 -1.12758,0.33925 -4.071,1.18907 -6.54093,1.88846 -5.41694,1.53386 -12.26815,3.71611 -28.31154,9.01792 -33.150828,10.95503 -35.170055,11.41735 -51.656492,11.82696 -11.514968,0.28609 -12.612748,0.22045 -15.607807,-0.93267 z"
         id="path6859"
         inkscape:connector-curvature="0" />
    </g>
  </g>
</svg>
