<?xml version="1.0" encoding="UTF-8" standalone="no"?>
<!-- Created with Inkscape (http://www.inkscape.org/) -->

<svg
   xmlns:dc="http://purl.org/dc/elements/1.1/"
   xmlns:cc="http://creativecommons.org/ns#"
   xmlns:rdf="http://www.w3.org/1999/02/22-rdf-syntax-ns#"
   xmlns:svg="http://www.w3.org/2000/svg"
   xmlns="http://www.w3.org/2000/svg"
   xmlns:sodipodi="http://sodipodi.sourceforge.net/DTD/sodipodi-0.dtd"
   xmlns:inkscape="http://www.inkscape.org/namespaces/inkscape"
   width="10mm"
   height="230mm"
   viewBox="0 0 10 230"
   version="1.1"
   id="svg9874"
   inkscape:version="0.92.4 (5da689c313, 2019-01-14)"
   sodipodi:docname="worklign.svg">
  <defs
     id="defs9868" />
  <sodipodi:namedview
     id="base"
     pagecolor="#ffffff"
     bordercolor="#666666"
     borderopacity="1.0"
     inkscape:pageopacity="0.0"
     inkscape:pageshadow="2"
     inkscape:zoom="0.49890312"
     inkscape:cx="75.64575"
     inkscape:cy="592.26384"
     inkscape:document-units="mm"
     inkscape:current-layer="layer1"
     showgrid="false"
     inkscape:window-width="1600"
     inkscape:window-height="837"
     inkscape:window-x="-8"
     inkscape:window-y="-8"
     inkscape:window-maximized="1" />
  <metadata
     id="metadata9871">
    <rdf:RDF>
      <cc:Work
         rdf:about="">
        <dc:format>image/svg+xml</dc:format>
        <dc:type
           rdf:resource="http://purl.org/dc/dcmitype/StillImage" />
        <dc:title></dc:title>
      </cc:Work>
    </rdf:RDF>
  </metadata>
  <g
     inkscape:label="Calque 1"
     inkscape:groupmode="layer"
     id="layer1"
     transform="translate(0,-67)">
    <rect
       style="opacity:1;fill:#5f5fd3;fill-opacity:1;stroke:none;stroke-width:0.12174103;stroke-opacity:1;paint-order:stroke fill markers"
       id="rect9893"
       width="1.1177949"
       height="143.62587"
       x="4.2252464"
       y="88.5103" />
    <path
       style="opacity:1;fill:#ff5555;fill-opacity:1;stroke:none;stroke-width:0.10169739;stroke-opacity:1;paint-order:stroke fill markers"
       id="path10438"
       sodipodi:type="arc"
       sodipodi:cx="4.8165383"
       sodipodi:cy="90.318733"
       sodipodi:rx="3.9082448"
       sodipodi:ry="3.4978516"
       sodipodi:start="0.37836295"
       sodipodi:end="0.37615685"
       d="M 8.4483554,91.610839 A 3.9082448,3.4978516 0 0 1 3.3748371,93.569896 3.9082448,3.4978516 0 0 1 1.183131,89.030214 3.9082448,3.4978516 0 0 1 6.2542317,87.066149 3.9082448,3.4978516 0 0 1 8.4515315,91.603665 L 4.8165383,90.318733 Z" />
    <path
       style="opacity:1;fill:#ff5555;fill-opacity:1;stroke:none;stroke-width:0.10169739;stroke-opacity:1;paint-order:stroke fill markers"
       id="path10438-6"
       sodipodi:type="arc"
       sodipodi:cx="4.9236927"
       sodipodi:cy="232.2527"
       sodipodi:rx="3.9082448"
       sodipodi:ry="3.4978516"
       sodipodi:start="0.37836295"
       sodipodi:end="0.37615685"
       d="m 8.5555098,233.54481 a 3.9082448,3.4978516 0 0 1 -5.0735183,1.95905 3.9082448,3.4978516 0 0 1 -2.1917061,-4.53968 3.9082448,3.4978516 0 0 1 5.0711007,-1.96406 3.9082448,3.4978516 0 0 1 2.1972998,4.53751 L 4.9236927,232.2527 Z" />
    <path
       style="opacity:1;fill:#ff5555;fill-opacity:1;stroke:none;stroke-width:0.10169739;stroke-opacity:1;paint-order:stroke fill markers"
       id="path10438-4"
       sodipodi:type="arc"
       sodipodi:cx="4.9332819"
       sodipodi:cy="125.84163"
       sodipodi:rx="3.9082448"
       sodipodi:ry="3.4978516"
       sodipodi:start="0.37836295"
       sodipodi:end="0.37615685"
       d="m 8.565099,127.13373 a 3.9082448,3.4978516 0 0 1 -5.0735183,1.95906 3.9082448,3.4978516 0 0 1 -2.1917061,-4.53968 3.9082448,3.4978516 0 0 1 5.0711007,-1.96407 3.9082448,3.4978516 0 0 1 2.1972998,4.53752 l -3.6349932,-1.28493 z" />
    <path
       style="opacity:1;fill:#ff5555;fill-opacity:1;stroke:none;stroke-width:0.10169739;stroke-opacity:1;paint-order:stroke fill markers"
       id="path10438-4-9"
       sodipodi:type="arc"
       sodipodi:cx="4.7958083"
       sodipodi:cy="161.92046"
       sodipodi:rx="3.9082448"
       sodipodi:ry="3.4978516"
       sodipodi:start="0.37836295"
       sodipodi:end="0.37615685"
       d="m 8.4276254,163.21256 a 3.9082448,3.4978516 0 0 1 -5.0735183,1.95906 3.9082448,3.4978516 0 0 1 -2.1917061,-4.53968 3.9082448,3.4978516 0 0 1 5.0711007,-1.96407 3.9082448,3.4978516 0 0 1 2.1972998,4.53752 l -3.6349932,-1.28493 z" />
  </g>
</svg>
